## OBJ file generated by Nuke ##

# vertex list - offset=0
v -1.230000 -1.480000 0.760000
v -0.540000 -1.480000 0.760000
v 0.150000 -1.480000 0.760000
v 0.840000 -1.480000 0.760000
v -1.230000 -0.780000 0.760000
v -0.540000 -0.780000 0.760000
v 0.150000 -0.780000 0.760000
v 0.840000 -0.780000 0.760000
v -1.230000 -0.080000 0.760000
v -0.540000 -0.080000 0.760000
v 0.150000 -0.080000 0.760000
v 0.840000 -0.080000 0.760000
v -1.230000 0.620000 0.760000
v -0.540000 0.620000 0.760000
v 0.150000 0.620000 0.760000
v 0.840000 0.620000 0.760000
v 0.840000 -1.480000 -0.570000
v 0.150000 -1.480000 -0.570000
v -0.540000 -1.480000 -0.570000
v -1.230000 -1.480000 -0.570000
v 0.840000 -0.780000 -0.570000
v 0.150000 -0.780000 -0.570000
v -0.540000 -0.780000 -0.570000
v -1.230000 -0.780000 -0.570000
v 0.840000 -0.080000 -0.570000
v 0.150000 -0.080000 -0.570000
v -0.540000 -0.080000 -0.570000
v -1.230000 -0.080000 -0.570000
v 0.840000 0.620000 -0.570000
v 0.150000 0.620000 -0.570000
v -0.540000 0.620000 -0.570000
v -1.230000 0.620000 -0.570000
v 0.840000 -1.480000 0.760000
v 0.840000 -1.480000 0.316667
v 0.840000 -1.480000 -0.126667
v 0.840000 -1.480000 -0.570000
v 0.840000 -0.780000 0.760000
v 0.840000 -0.780000 0.316667
v 0.840000 -0.780000 -0.126667
v 0.840000 -0.780000 -0.570000
v 0.840000 -0.080000 0.760000
v 0.840000 -0.080000 0.316667
v 0.840000 -0.080000 -0.126667
v 0.840000 -0.080000 -0.570000
v 0.840000 0.620000 0.760000
v 0.840000 0.620000 0.316667
v 0.840000 0.620000 -0.126667
v 0.840000 0.620000 -0.570000
v -1.230000 -1.480000 -0.570000
v -1.230000 -1.480000 -0.126667
v -1.230000 -1.480000 0.316667
v -1.230000 -1.480000 0.760000
v -1.230000 -0.780000 -0.570000
v -1.230000 -0.780000 -0.126667
v -1.230000 -0.780000 0.316667
v -1.230000 -0.780000 0.760000
v -1.230000 -0.080000 -0.570000
v -1.230000 -0.080000 -0.126667
v -1.230000 -0.080000 0.316667
v -1.230000 -0.080000 0.760000
v -1.230000 0.620000 -0.570000
v -1.230000 0.620000 -0.126667
v -1.230000 0.620000 0.316667
v -1.230000 0.620000 0.760000
v -1.230000 0.620000 0.760000
v -0.540000 0.620000 0.760000
v 0.150000 0.620000 0.760000
v 0.840000 0.620000 0.760000
v -1.230000 0.620000 0.316667
v -0.540000 0.620000 0.316667
v 0.150000 0.620000 0.316667
v 0.840000 0.620000 0.316667
v -1.230000 0.620000 -0.126667
v -0.540000 0.620000 -0.126667
v 0.150000 0.620000 -0.126667
v 0.840000 0.620000 -0.126667
v -1.230000 0.620000 -0.570000
v -0.540000 0.620000 -0.570000
v 0.150000 0.620000 -0.570000
v 0.840000 0.620000 -0.570000
v -1.230000 -1.480000 -0.570000
v -0.540000 -1.480000 -0.570000
v 0.150000 -1.480000 -0.570000
v 0.840000 -1.480000 -0.570000
v -1.230000 -1.480000 -0.126667
v -0.540000 -1.480000 -0.126667
v 0.150000 -1.480000 -0.126667
v 0.840000 -1.480000 -0.126667
v -1.230000 -1.480000 0.316667
v -0.540000 -1.480000 0.316667
v 0.150000 -1.480000 0.316667
v 0.840000 -1.480000 0.316667
v -1.230000 -1.480000 0.760000
v -0.540000 -1.480000 0.760000
v 0.150000 -1.480000 0.760000
v 0.840000 -1.480000 0.760000

# point texture coordinates - offset=0
vt 0.000000 0.000000
vt 0.333333 0.000000
vt 0.666667 0.000000
vt 1.000000 0.000000
vt 0.000000 0.333333
vt 0.333333 0.333333
vt 0.666667 0.333333
vt 1.000000 0.333333
vt 0.000000 0.666667
vt 0.333333 0.666667
vt 0.666667 0.666667
vt 1.000000 0.666667
vt 0.000000 1.000000
vt 0.333333 1.000000
vt 0.666667 1.000000
vt 1.000000 1.000000
vt 0.000000 0.000000
vt 0.333333 0.000000
vt 0.666667 0.000000
vt 1.000000 0.000000
vt 0.000000 0.333333
vt 0.333333 0.333333
vt 0.666667 0.333333
vt 1.000000 0.333333
vt 0.000000 0.666667
vt 0.333333 0.666667
vt 0.666667 0.666667
vt 1.000000 0.666667
vt 0.000000 1.000000
vt 0.333333 1.000000
vt 0.666667 1.000000
vt 1.000000 1.000000
vt 0.000000 0.000000
vt 0.333333 0.000000
vt 0.666667 0.000000
vt 1.000000 0.000000
vt 0.000000 0.333333
vt 0.333333 0.333333
vt 0.666667 0.333333
vt 1.000000 0.333333
vt 0.000000 0.666667
vt 0.333333 0.666667
vt 0.666667 0.666667
vt 1.000000 0.666667
vt 0.000000 1.000000
vt 0.333333 1.000000
vt 0.666667 1.000000
vt 1.000000 1.000000
vt 0.000000 0.000000
vt 0.333333 0.000000
vt 0.666667 0.000000
vt 1.000000 0.000000
vt 0.000000 0.333333
vt 0.333333 0.333333
vt 0.666667 0.333333
vt 1.000000 0.333333
vt 0.000000 0.666667
vt 0.333333 0.666667
vt 0.666667 0.666667
vt 1.000000 0.666667
vt 0.000000 1.000000
vt 0.333333 1.000000
vt 0.666667 1.000000
vt 1.000000 1.000000
vt 0.000000 0.000000
vt 0.333333 0.000000
vt 0.666667 0.000000
vt 1.000000 0.000000
vt 0.000000 0.333333
vt 0.333333 0.333333
vt 0.666667 0.333333
vt 1.000000 0.333333
vt 0.000000 0.666667
vt 0.333333 0.666667
vt 0.666667 0.666667
vt 1.000000 0.666667
vt 0.000000 1.000000
vt 0.333333 1.000000
vt 0.666667 1.000000
vt 1.000000 1.000000
vt 0.000000 0.000000
vt 0.333333 0.000000
vt 0.666667 0.000000
vt 1.000000 0.000000
vt 0.000000 0.333333
vt 0.333333 0.333333
vt 0.666667 0.333333
vt 1.000000 0.333333
vt 0.000000 0.666667
vt 0.333333 0.666667
vt 0.666667 0.666667
vt 1.000000 0.666667
vt 0.000000 1.000000
vt 0.333333 1.000000
vt 0.666667 1.000000
vt 1.000000 1.000000

# vertex normals - offset=0
vn 0.000000 0.000000 1.000000
vn 0.000000 0.000000 1.000000
vn 0.000000 0.000000 1.000000
vn 0.000000 0.000000 1.000000
vn 0.000000 0.000000 1.000000
vn 0.000000 0.000000 1.000000
vn 0.000000 0.000000 1.000000
vn 0.000000 0.000000 1.000000
vn 0.000000 0.000000 1.000000
vn 0.000000 0.000000 1.000000
vn 0.000000 0.000000 1.000000
vn 0.000000 0.000000 1.000000
vn 0.000000 0.000000 1.000000
vn 0.000000 0.000000 1.000000
vn 0.000000 0.000000 1.000000
vn 0.000000 0.000000 1.000000
vn 0.000000 0.000000 1.000000
vn 0.000000 0.000000 1.000000
vn 0.000000 0.000000 1.000000
vn 0.000000 0.000000 1.000000
vn 0.000000 0.000000 1.000000
vn 0.000000 0.000000 1.000000
vn 0.000000 0.000000 1.000000
vn 0.000000 0.000000 1.000000
vn 0.000000 0.000000 1.000000
vn 0.000000 0.000000 1.000000
vn 0.000000 0.000000 1.000000
vn 0.000000 0.000000 1.000000
vn 0.000000 0.000000 1.000000
vn 0.000000 0.000000 1.000000
vn 0.000000 0.000000 1.000000
vn 0.000000 0.000000 1.000000
vn 0.000000 0.000000 1.000000
vn 0.000000 0.000000 1.000000
vn 0.000000 0.000000 1.000000
vn 0.000000 0.000000 1.000000
vn 0.000000 0.000000 -1.000000
vn 0.000000 0.000000 -1.000000
vn 0.000000 0.000000 -1.000000
vn 0.000000 0.000000 -1.000000
vn 0.000000 0.000000 -1.000000
vn 0.000000 0.000000 -1.000000
vn 0.000000 0.000000 -1.000000
vn 0.000000 0.000000 -1.000000
vn 0.000000 0.000000 -1.000000
vn 0.000000 0.000000 -1.000000
vn 0.000000 0.000000 -1.000000
vn 0.000000 0.000000 -1.000000
vn 0.000000 0.000000 -1.000000
vn 0.000000 0.000000 -1.000000
vn 0.000000 0.000000 -1.000000
vn 0.000000 0.000000 -1.000000
vn 0.000000 0.000000 -1.000000
vn 0.000000 0.000000 -1.000000
vn 0.000000 0.000000 -1.000000
vn 0.000000 0.000000 -1.000000
vn 0.000000 0.000000 -1.000000
vn 0.000000 0.000000 -1.000000
vn 0.000000 0.000000 -1.000000
vn 0.000000 0.000000 -1.000000
vn 0.000000 0.000000 -1.000000
vn 0.000000 0.000000 -1.000000
vn 0.000000 0.000000 -1.000000
vn 0.000000 0.000000 -1.000000
vn 0.000000 0.000000 -1.000000
vn 0.000000 0.000000 -1.000000
vn 0.000000 0.000000 -1.000000
vn 0.000000 0.000000 -1.000000
vn 0.000000 0.000000 -1.000000
vn 0.000000 0.000000 -1.000000
vn 0.000000 0.000000 -1.000000
vn 0.000000 0.000000 -1.000000
vn 1.000000 0.000000 0.000000
vn 1.000000 0.000000 0.000000
vn 1.000000 0.000000 0.000000
vn 1.000000 0.000000 0.000000
vn 1.000000 0.000000 0.000000
vn 1.000000 0.000000 0.000000
vn 1.000000 0.000000 0.000000
vn 1.000000 0.000000 0.000000
vn 1.000000 0.000000 0.000000
vn 1.000000 0.000000 0.000000
vn 1.000000 0.000000 0.000000
vn 1.000000 0.000000 0.000000
vn 1.000000 0.000000 0.000000
vn 1.000000 0.000000 0.000000
vn 1.000000 0.000000 0.000000
vn 1.000000 0.000000 0.000000
vn 1.000000 0.000000 0.000000
vn 1.000000 0.000000 0.000000
vn 1.000000 0.000000 0.000000
vn 1.000000 0.000000 0.000000
vn 1.000000 0.000000 0.000000
vn 1.000000 0.000000 0.000000
vn 1.000000 0.000000 0.000000
vn 1.000000 0.000000 0.000000
vn 1.000000 0.000000 0.000000
vn 1.000000 0.000000 0.000000
vn 1.000000 0.000000 0.000000
vn 1.000000 0.000000 0.000000
vn 1.000000 0.000000 0.000000
vn 1.000000 0.000000 0.000000
vn 1.000000 0.000000 0.000000
vn 1.000000 0.000000 0.000000
vn 1.000000 0.000000 0.000000
vn 1.000000 0.000000 0.000000
vn 1.000000 0.000000 0.000000
vn 1.000000 0.000000 0.000000
vn -1.000000 0.000000 0.000000
vn -1.000000 0.000000 0.000000
vn -1.000000 0.000000 0.000000
vn -1.000000 0.000000 0.000000
vn -1.000000 0.000000 0.000000
vn -1.000000 0.000000 0.000000
vn -1.000000 0.000000 0.000000
vn -1.000000 0.000000 0.000000
vn -1.000000 0.000000 0.000000
vn -1.000000 0.000000 0.000000
vn -1.000000 0.000000 0.000000
vn -1.000000 0.000000 0.000000
vn -1.000000 0.000000 0.000000
vn -1.000000 0.000000 0.000000
vn -1.000000 0.000000 0.000000
vn -1.000000 0.000000 0.000000
vn -1.000000 0.000000 0.000000
vn -1.000000 0.000000 0.000000
vn -1.000000 0.000000 0.000000
vn -1.000000 0.000000 0.000000
vn -1.000000 0.000000 0.000000
vn -1.000000 0.000000 0.000000
vn -1.000000 0.000000 0.000000
vn -1.000000 0.000000 0.000000
vn -1.000000 0.000000 0.000000
vn -1.000000 0.000000 0.000000
vn -1.000000 0.000000 0.000000
vn -1.000000 0.000000 0.000000
vn -1.000000 0.000000 0.000000
vn -1.000000 0.000000 0.000000
vn -1.000000 0.000000 0.000000
vn -1.000000 0.000000 0.000000
vn -1.000000 0.000000 0.000000
vn -1.000000 0.000000 0.000000
vn -1.000000 0.000000 0.000000
vn -1.000000 0.000000 0.000000
vn 0.000000 1.000000 0.000000
vn 0.000000 1.000000 0.000000
vn 0.000000 1.000000 0.000000
vn 0.000000 1.000000 0.000000
vn 0.000000 1.000000 0.000000
vn 0.000000 1.000000 0.000000
vn 0.000000 1.000000 0.000000
vn 0.000000 1.000000 0.000000
vn 0.000000 1.000000 0.000000
vn 0.000000 1.000000 0.000000
vn 0.000000 1.000000 0.000000
vn 0.000000 1.000000 0.000000
vn 0.000000 1.000000 0.000000
vn 0.000000 1.000000 0.000000
vn 0.000000 1.000000 0.000000
vn 0.000000 1.000000 0.000000
vn 0.000000 1.000000 0.000000
vn 0.000000 1.000000 0.000000
vn 0.000000 1.000000 0.000000
vn 0.000000 1.000000 0.000000
vn 0.000000 1.000000 0.000000
vn 0.000000 1.000000 0.000000
vn 0.000000 1.000000 0.000000
vn 0.000000 1.000000 0.000000
vn 0.000000 1.000000 0.000000
vn 0.000000 1.000000 0.000000
vn 0.000000 1.000000 0.000000
vn 0.000000 1.000000 0.000000
vn 0.000000 1.000000 0.000000
vn 0.000000 1.000000 0.000000
vn 0.000000 1.000000 0.000000
vn 0.000000 1.000000 0.000000
vn 0.000000 1.000000 0.000000
vn 0.000000 1.000000 0.000000
vn 0.000000 1.000000 0.000000
vn 0.000000 1.000000 0.000000
vn 0.000000 -1.000000 0.000000
vn 0.000000 -1.000000 0.000000
vn 0.000000 -1.000000 0.000000
vn 0.000000 -1.000000 0.000000
vn 0.000000 -1.000000 0.000000
vn 0.000000 -1.000000 0.000000
vn 0.000000 -1.000000 0.000000
vn 0.000000 -1.000000 0.000000
vn 0.000000 -1.000000 0.000000
vn 0.000000 -1.000000 0.000000
vn 0.000000 -1.000000 0.000000
vn 0.000000 -1.000000 0.000000
vn 0.000000 -1.000000 0.000000
vn 0.000000 -1.000000 0.000000
vn 0.000000 -1.000000 0.000000
vn 0.000000 -1.000000 0.000000
vn 0.000000 -1.000000 0.000000
vn 0.000000 -1.000000 0.000000
vn 0.000000 -1.000000 0.000000
vn 0.000000 -1.000000 0.000000
vn 0.000000 -1.000000 0.000000
vn 0.000000 -1.000000 0.000000
vn 0.000000 -1.000000 0.000000
vn 0.000000 -1.000000 0.000000
vn 0.000000 -1.000000 0.000000
vn 0.000000 -1.000000 0.000000
vn 0.000000 -1.000000 0.000000
vn 0.000000 -1.000000 0.000000
vn 0.000000 -1.000000 0.000000
vn 0.000000 -1.000000 0.000000
vn 0.000000 -1.000000 0.000000
vn 0.000000 -1.000000 0.000000
vn 0.000000 -1.000000 0.000000
vn 0.000000 -1.000000 0.000000
vn 0.000000 -1.000000 0.000000
vn 0.000000 -1.000000 0.000000

f 1/1/1 2/2/2 6/6/3 5/5/4
f 2/2/5 3/3/6 7/7/7 6/6/8
f 3/3/9 4/4/10 8/8/11 7/7/12
f 5/5/13 6/6/14 10/10/15 9/9/16
f 6/6/17 7/7/18 11/11/19 10/10/20
f 7/7/21 8/8/22 12/12/23 11/11/24
f 9/9/25 10/10/26 14/14/27 13/13/28
f 10/10/29 11/11/30 15/15/31 14/14/32
f 11/11/33 12/12/34 16/16/35 15/15/36
f 17/17/37 18/18/38 22/22/39 21/21/40
f 18/18/41 19/19/42 23/23/43 22/22/44
f 19/19/45 20/20/46 24/24/47 23/23/48
f 21/21/49 22/22/50 26/26/51 25/25/52
f 22/22/53 23/23/54 27/27/55 26/26/56
f 23/23/57 24/24/58 28/28/59 27/27/60
f 25/25/61 26/26/62 30/30/63 29/29/64
f 26/26/65 27/27/66 31/31/67 30/30/68
f 27/27/69 28/28/70 32/32/71 31/31/72
f 33/33/73 34/34/74 38/38/75 37/37/76
f 34/34/77 35/35/78 39/39/79 38/38/80
f 35/35/81 36/36/82 40/40/83 39/39/84
f 37/37/85 38/38/86 42/42/87 41/41/88
f 38/38/89 39/39/90 43/43/91 42/42/92
f 39/39/93 40/40/94 44/44/95 43/43/96
f 41/41/97 42/42/98 46/46/99 45/45/100
f 42/42/101 43/43/102 47/47/103 46/46/104
f 43/43/105 44/44/106 48/48/107 47/47/108
f 49/49/109 50/50/110 54/54/111 53/53/112
f 50/50/113 51/51/114 55/55/115 54/54/116
f 51/51/117 52/52/118 56/56/119 55/55/120
f 53/53/121 54/54/122 58/58/123 57/57/124
f 54/54/125 55/55/126 59/59/127 58/58/128
f 55/55/129 56/56/130 60/60/131 59/59/132
f 57/57/133 58/58/134 62/62/135 61/61/136
f 58/58/137 59/59/138 63/63/139 62/62/140
f 59/59/141 60/60/142 64/64/143 63/63/144
f 65/65/145 66/66/146 70/70/147 69/69/148
f 66/66/149 67/67/150 71/71/151 70/70/152
f 67/67/153 68/68/154 72/72/155 71/71/156
f 69/69/157 70/70/158 74/74/159 73/73/160
f 70/70/161 71/71/162 75/75/163 74/74/164
f 71/71/165 72/72/166 76/76/167 75/75/168
f 73/73/169 74/74/170 78/78/171 77/77/172
f 74/74/173 75/75/174 79/79/175 78/78/176
f 75/75/177 76/76/178 80/80/179 79/79/180
f 81/81/181 82/82/182 86/86/183 85/85/184
f 82/82/185 83/83/186 87/87/187 86/86/188
f 83/83/189 84/84/190 88/88/191 87/87/192
f 85/85/193 86/86/194 90/90/195 89/89/196
f 86/86/197 87/87/198 91/91/199 90/90/200
f 87/87/201 88/88/202 92/92/203 91/91/204
f 89/89/205 90/90/206 94/94/207 93/93/208
f 90/90/209 91/91/210 95/95/211 94/94/212
f 91/91/213 92/92/214 96/96/215 95/95/216

# end of file
